<svg width="122" height="36" viewBox="0 0 122 36" fill="none" xmlns="http://www.w3.org/2000/svg">
<g clip-path="url(#clip0_1053_5029)">
<path d="M33.038 24.3899V11.61C33.038 9.75203 32.0386 8.03166 30.4159 7.10757L19.1064 0.688132C17.5035 -0.226122 15.5246 -0.226122 13.9217 0.688132L2.62206 7.10757C0.999351 8.03166 0 9.75203 0 11.61V24.3899C0 26.2479 0.999351 27.9683 2.62206 28.8924L13.9217 35.3217C15.5246 36.2359 17.5035 36.2359 19.1064 35.3217L30.406 28.8924C32.0386 27.9585 33.038 26.2479 33.038 24.3899Z" fill="url(#paint0_linear_1053_5029)"/>
<path d="M26.9627 18.0493C26.9627 16.3093 26.9429 14.5692 26.9726 12.8292C26.9924 11.2071 26.3097 10.0078 24.9145 9.20168C22.7674 7.97285 20.6302 6.72435 18.4732 5.525C17.177 4.80736 15.8214 4.83686 14.5252 5.56433C12.4177 6.74401 10.3299 7.95319 8.23229 9.15253C6.79758 9.96848 6.06538 11.1973 6.07527 12.8489C6.08517 16.211 6.10496 19.5731 6.06538 22.9352C6.04559 24.7637 6.80747 26.0712 8.4005 26.9559C10.4289 28.0766 12.4276 29.2465 14.4461 30.3868C15.8016 31.1635 17.1869 31.1831 18.5523 30.4262C20.7093 29.217 22.8565 27.9881 24.9937 26.7396C26.2998 25.9827 26.9825 24.8423 26.9726 23.3087C26.9627 21.5589 26.9627 19.7992 26.9627 18.0493ZM25.4983 23.2989C25.4686 24.2721 25.0432 25.0094 24.1823 25.501C22.1342 26.661 20.086 27.821 18.0576 29.0105C17.0187 29.62 16.049 29.6102 15.0101 29.0007C13.0213 27.821 11.0028 26.6905 8.98428 25.5501C8.06408 25.0291 7.57925 24.2623 7.57925 23.2104C7.56935 20.2809 7.56935 17.3513 7.57925 14.4218C7.57925 13.8319 7.64851 13.7828 8.18281 14.0875C10.132 15.1886 12.0912 16.2601 14.0008 17.43C15.7027 18.472 17.3452 18.5212 19.0372 17.4496C19.7298 17.0073 20.4719 16.6337 21.1744 16.2208C21.6988 15.916 21.867 15.4638 21.59 15.0608C21.2733 14.5987 20.8479 14.697 20.4422 14.9133C19.5814 15.3852 18.7304 15.8767 17.8894 16.3781C16.9692 16.9188 16.0787 16.8991 15.1585 16.3683C12.8629 15.0411 10.5575 13.7336 8.26197 12.4262C7.67819 12.0919 7.62872 11.8658 8.00471 11.3153C8.25208 10.9515 8.58849 10.6861 8.96449 10.4698C10.9929 9.30982 13.0312 8.15963 15.0496 6.97995C16.049 6.39994 16.9989 6.37044 17.9982 6.96029C20.0662 8.16946 22.1539 9.34914 24.2219 10.5387C25.0432 11.0105 25.4686 11.7282 25.4884 12.6523C25.5181 13.7041 25.4884 14.7659 25.4983 15.8177C25.4983 16.152 25.3796 16.3584 25.0827 16.5157C22.6784 17.8822 20.274 19.2487 17.8696 20.625C16.9692 21.146 16.0886 21.146 15.1882 20.625C14.4065 20.1727 13.6248 19.7304 12.8333 19.288C12.6947 19.2093 12.5661 19.1307 12.4177 19.0717C12.0219 18.9144 11.6657 18.9734 11.448 19.347C11.2106 19.75 11.3293 20.1334 11.7152 20.3595C12.764 20.9789 13.8029 21.608 14.9012 22.1389C16.2271 22.7779 17.5332 22.5616 18.7799 21.8341C20.7786 20.6741 22.7971 19.5239 24.8057 18.3836C25.429 18.0296 25.4785 18.0788 25.4785 18.7866C25.4785 19.5239 25.4785 20.271 25.4785 21.0083C25.4983 21.7751 25.5181 22.5419 25.4983 23.2989Z" fill="white"/>
<path d="M21.9659 23.8791C21.7384 23.5449 21.4613 23.4859 21.1744 23.5547C21.0358 23.5842 20.8874 23.653 20.7489 23.7317C20.2542 24.0069 19.7693 24.3117 19.2746 24.5968C18.8393 24.8327 18.4039 25.0687 17.9685 25.3144C17.0088 25.8649 16.0688 25.8748 15.109 25.3144C14.2779 24.8327 13.4368 24.3608 12.6057 23.8791C12.4573 23.8005 12.3187 23.712 12.1604 23.6432C11.7449 23.4662 11.359 23.5351 11.1215 23.9381C10.8741 24.3707 11.0028 24.7836 11.4084 25.0195C12.5265 25.6782 13.6347 26.3565 14.8023 26.9168C16.2172 27.605 17.6024 27.369 18.9481 26.5924C19.0569 26.5334 19.1658 26.4646 19.2746 26.4056C19.3241 26.3761 19.3637 26.3466 19.4131 26.327C19.8881 26.0517 20.3729 25.7765 20.8479 25.5012C21.0754 25.3734 21.2931 25.2456 21.5207 25.1178C22.0748 24.7934 22.2529 24.3019 21.9659 23.8791Z" fill="white"/>
<path d="M48.8308 25.9729V6.39013C48.8308 5.28909 49.5333 4.62061 50.5228 4.62061C51.5122 4.62061 52.2148 5.28909 52.2148 6.39013V13.773H52.2939C53.2834 11.8757 55.1732 10.7255 57.5083 10.7255C61.6542 10.7255 64.3653 13.9893 64.3653 19.17C64.3653 24.3606 61.674 27.6343 57.4787 27.6343C55.0842 27.6343 53.2042 26.4644 52.1851 24.5671H52.1257V25.963C52.1257 27.0248 51.4331 27.6441 50.4535 27.6441C49.4641 27.6539 48.8308 27.0248 48.8308 25.9729ZM60.8824 19.17C60.8824 15.7293 59.2201 13.5567 56.5585 13.5567C54.0057 13.5567 52.195 15.7981 52.195 19.17C52.195 22.5715 54.0156 24.7834 56.5585 24.7834C59.2399 24.7932 60.8824 22.6403 60.8824 19.17Z" fill="#006AFE"/>
<path d="M66.8093 6.59667C66.8093 5.52513 67.6899 4.67969 68.7684 4.67969C69.8667 4.67969 70.7374 5.5153 70.7374 6.59667C70.7374 7.65839 69.8568 8.52349 68.7684 8.52349C67.6899 8.52349 66.8093 7.64856 66.8093 6.59667ZM67.0764 25.8747V12.4853C67.0764 11.3941 67.7492 10.6961 68.7684 10.6961C69.7875 10.6961 70.4604 11.3941 70.4604 12.4853V25.8747C70.4604 26.9462 69.7875 27.6442 68.7684 27.6442C67.7492 27.654 67.0764 26.9462 67.0764 25.8747Z" fill="#006AFE"/>
<path d="M74.339 30.5539C74.1213 30.1803 74.0224 29.8362 74.0224 29.4528C74.0224 28.6762 74.6062 28.1159 75.467 28.1159C75.9815 28.1159 76.308 28.283 76.7632 28.7352C78.1088 30.1311 79.2665 30.7407 80.8793 30.7701C83.63 30.7996 85.3121 29.2464 85.3121 26.9558V24.3605H85.2329C84.3127 26.1301 82.3635 27.2999 80.0185 27.2999C75.8727 27.2999 73.1813 24.0853 73.1813 19.0225C73.1813 13.9105 75.843 10.7155 80.0976 10.7155C82.4328 10.7155 84.2435 11.8854 85.2428 13.7336H85.3022V12.4162C85.3022 11.325 86.0344 10.686 87.004 10.686C87.9737 10.686 88.696 11.325 88.696 12.4162V26.8969C88.696 30.9373 85.7079 33.5522 80.81 33.5031C77.8318 33.4834 75.467 32.3332 74.339 30.5539ZM85.3319 19.0618C85.3319 15.6997 83.5805 13.4976 80.9288 13.4976C78.3265 13.4976 76.6444 15.6407 76.6444 19.052C76.6444 22.473 78.3364 24.5768 80.9288 24.5768C83.5805 24.567 85.3319 22.4239 85.3319 19.0618Z" fill="#006AFE"/>
<path d="M91.2983 19.2091C91.2983 14.0283 94.3458 10.7056 99.0457 10.7056C102.222 10.7056 104.943 12.3866 105.665 14.6673C105.754 14.9328 105.823 15.208 105.823 15.444C105.823 16.2992 105.21 16.8301 104.379 16.8301C103.657 16.8301 103.251 16.5548 102.845 15.8077C102.004 14.2544 100.847 13.5073 99.1051 13.5073C96.4632 13.5073 94.7416 15.6996 94.7416 19.1796C94.7416 22.7383 96.4929 24.8519 99.1051 24.8519C100.936 24.8519 102.044 24.0458 102.845 22.6302C103.31 21.8241 103.676 21.539 104.409 21.539C105.24 21.539 105.853 22.0993 105.853 22.9349C105.853 23.2004 105.794 23.4756 105.665 23.8099C104.804 26.0611 102.123 27.6635 99.0754 27.6635C94.3656 27.6635 91.2983 24.4194 91.2983 19.2091Z" fill="#006AFE"/>
<path d="M112.601 25.9432L107.713 13.1731C107.605 12.8782 107.525 12.5538 107.525 12.2392C107.525 11.3053 108.248 10.6958 109.227 10.6958C110.009 10.6958 110.543 11.1185 110.82 12.0131L114.907 24.0655H114.966L119.053 11.9836C119.33 11.1087 119.864 10.6958 120.636 10.6958C121.605 10.6958 122.298 11.3348 122.298 12.2196C122.298 12.5145 122.239 12.8389 122.13 13.124L117.242 25.9432C116.807 27.1229 116.084 27.6537 114.927 27.6537C113.729 27.6537 113.066 27.1524 112.601 25.9432Z" fill="#006AFE"/>
</g>
<defs>
<linearGradient id="paint0_linear_1053_5029" x1="3.96397" y1="5.52492" x2="28.9115" y2="30.6345" gradientUnits="userSpaceOnUse">
<stop stop-color="#006AFE"/>
<stop offset="1" stop-color="#638DFF"/>
</linearGradient>
<clipPath id="clip0_1053_5029">
<rect width="122" height="36" fill="white"/>
</clipPath>
</defs>
</svg>
