<svg width="16" height="16" viewBox="0 0 16 16" fill="none" xmlns="http://www.w3.org/2000/svg">
<path d="M2.58697 5.87435C2.81818 4.6121 3.53054 3.76227 4.7428 3.33735C5.03649 3.23737 5.33643 3.18738 5.64887 3.18738C8.06715 3.18738 10.4917 3.18113 12.91 3.18738C14.5971 3.19363 15.9844 4.57461 15.9906 6.26178C16.0031 8.27389 16.0031 10.2922 15.9906 12.3043C15.9781 14.3227 14.3159 15.9661 12.3038 15.9911C12.1226 15.9911 11.9414 15.9974 11.7602 15.9911C11.3853 15.9849 11.1228 15.7162 11.1291 15.36C11.1353 15.0101 11.3915 14.7476 11.7602 14.7414C12.1476 14.7351 12.5413 14.7539 12.9225 14.6476C13.9847 14.3477 14.7408 13.3791 14.7471 12.2731C14.7533 10.2797 14.7533 8.28638 14.7471 6.29302C14.7471 5.26822 13.9098 4.43713 12.885 4.43713C10.4792 4.43089 8.0734 4.43089 5.67387 4.43713C4.64282 4.44338 3.81173 5.28072 3.81173 6.30552C3.80548 8.38011 3.81173 10.4485 3.81173 12.5231C3.81173 12.9042 3.62427 13.1479 3.28683 13.2104C3.05563 13.2479 2.86192 13.1667 2.6932 12.998C2.61821 12.8667 2.55573 12.7293 2.56198 12.573C2.58072 10.3422 2.53073 8.10517 2.58697 5.87435Z" fill="#006AFE"/>
<path d="M3.74927 14.7414C4.67409 14.7414 5.60516 14.7476 6.52997 14.7476C6.59871 14.7476 6.66745 14.7476 6.72994 14.7476C7.10486 14.7539 7.36731 15.0163 7.36731 15.3725C7.36731 15.7287 7.09861 15.9911 6.72369 15.9911C6.38625 15.9974 6.04882 15.9911 5.71138 15.9911C5.07401 15.9911 4.43038 15.9911 3.79301 15.9911C1.96837 15.9974 0.468658 14.7851 0.0812341 13.0105C0.0249951 12.7543 0 12.4981 0 12.2356C0 9.41116 0 6.59296 0 3.76851C0 1.89388 1.33724 0.337934 3.19313 0.0442414C3.3306 0.025495 3.47432 0.00674868 3.61179 0.00674868C4.56161 0.00674868 5.51767 -0.0119977 6.46749 0.0129975C7.51103 0.0379926 8.40461 0.456661 9.11697 1.21901C9.31068 1.42522 9.34817 1.68767 9.2357 1.92512C9.12947 2.15008 8.89201 2.2938 8.64206 2.2813C8.47335 2.27506 8.32962 2.20632 8.21714 2.08134C7.67975 1.50021 6.99863 1.24401 6.19879 1.2565C5.3802 1.269 4.56161 1.26275 3.74927 1.26275C3.71802 1.26275 3.68678 1.2565 3.65554 1.2565C2.34329 1.27525 1.24976 2.40628 1.24976 3.75602C1.24351 6.58671 1.24976 9.41741 1.24976 12.2481C1.24976 12.4356 1.27475 12.623 1.31224 12.8042C1.55595 13.9228 2.65573 14.8039 3.74927 14.7414Z" fill="#006AFE"/>
<path d="M3.74927 14.7414C2.65573 14.7976 1.5497 13.9228 1.31224 12.8042C1.27475 12.623 1.24976 12.4356 1.24976 12.2481C1.24976 9.41741 1.24976 6.58671 1.24976 3.75601C1.24976 2.40628 2.34329 1.27525 3.65554 1.2565C3.68678 1.2565 3.71802 1.26275 3.74927 1.26275C3.74302 1.34398 3.66178 1.36273 3.61179 1.40022C3.00566 1.94387 2.66198 2.63123 2.562 3.43732C2.54325 3.59979 2.55575 3.76851 2.55575 3.93723C2.55575 4.53086 2.55575 5.11825 2.55575 5.71188C2.55575 5.76812 2.537 5.82436 2.58075 5.87435C2.51826 8.10516 2.5745 10.336 2.55575 12.5668C2.55575 12.723 2.61199 12.8605 2.68698 12.9917C2.63699 13.0167 2.65573 13.0542 2.66198 13.0979C2.84319 13.7228 3.18063 14.2415 3.68053 14.6539C3.71802 14.6789 3.74927 14.7039 3.74927 14.7414Z" fill="#B2D0FE"/>
<path d="M9.27317 7.88022C9.77933 7.89896 10.2355 8.05518 10.6042 8.43011C10.9916 8.83003 11.3915 9.21746 11.7789 9.61738C12.0039 9.84858 12.0289 10.161 11.8539 10.4172C11.6915 10.6547 11.3915 10.7484 11.1228 10.6484C11.0166 10.6109 10.9353 10.5422 10.8541 10.461C10.4917 10.0923 10.1355 9.72361 9.77308 9.35493C9.46064 9.03624 9.06696 9.03624 8.75453 9.35493C8.3796 9.72986 8.01092 10.1173 7.63599 10.4922C7.44853 10.6797 7.22357 10.7359 6.97362 10.6484C6.74867 10.5734 6.61119 10.4047 6.56745 10.1735C6.52371 9.96106 6.5862 9.76735 6.74242 9.61738C7.16109 9.19246 7.57351 8.76755 7.99842 8.35513C8.34835 8.01769 8.79202 7.89272 9.27317 7.88022Z" fill="#FED500"/>
<path d="M9.87305 13.3416C9.87305 14.0103 9.87305 14.6726 9.87305 15.3412C9.87305 15.7224 9.6106 15.9974 9.24817 15.9974C8.89199 15.9974 8.62329 15.7224 8.62329 15.3412C8.62329 13.9978 8.62329 12.6543 8.62329 11.3108C8.62329 10.9858 8.79826 10.7546 9.07945 10.6797C9.37314 10.6047 9.64809 10.7109 9.79181 10.9671C9.8543 11.0796 9.87305 11.1983 9.87305 11.3295C9.87305 12.0044 9.87305 12.673 9.87305 13.3416Z" fill="#FED500"/>
</svg>
