<svg width="36" height="36" viewBox="0 0 36 36" fill="none" xmlns="http://www.w3.org/2000/svg">
<rect width="36" height="36" rx="8" fill="white"/>
<path d="M14.4077 15.3049C14.4077 13.4051 15.9661 11.8651 17.8885 11.8651C19.8109 11.8651 21.3693 13.4051 21.3693 15.3049C21.3693 17.2046 19.8109 18.7446 17.8885 18.7446C15.9661 18.7446 14.4077 17.2046 14.4077 15.3049Z" fill="#4DB9E9"/>
<path d="M11.9015 26.202C11.9015 23.2992 14.2827 20.946 17.2201 20.946H18.5568C21.4942 20.946 23.8754 23.2992 23.8754 26.202C23.8754 26.6427 23.5139 27 23.0679 27H12.709C12.263 27 11.9015 26.6427 11.9015 26.202Z" fill="#4DB9E9"/>
<path d="M20.0418 10.9835C21.5068 11.6977 22.5561 13.1179 22.7348 14.7946C23.0024 14.8583 23.2819 14.8921 23.5694 14.8921C25.5302 14.8921 27.1198 13.3213 27.1198 11.3835C27.1198 9.44583 25.5302 7.875 23.5694 7.875C21.7454 7.875 20.2427 9.23418 20.0418 10.9835Z" fill="#4DB9E9"/>
<path d="M22.7528 15.5997C22.8352 15.5958 22.918 15.5938 23.0013 15.5938H24.1374C26.961 15.5938 29.25 17.8558 29.25 20.6461C29.25 21.3437 28.6778 21.9092 27.9719 21.9092H23.6725C22.7144 20.7952 21.3902 19.9983 19.8838 19.6997C21.4945 18.9846 22.641 17.43 22.7528 15.5997Z" fill="#4DB9E9"/>
<path d="M12.4307 7.875C10.4698 7.875 8.88025 9.44583 8.88025 11.3835C8.88025 13.3213 10.4698 14.8921 12.4307 14.8921C12.6376 14.8921 12.8405 14.8746 13.0378 14.841C13.2095 13.0647 14.3577 11.5701 15.9458 10.8871C15.7018 9.18449 14.221 7.875 12.4307 7.875Z" fill="#4DB9E9"/>
<path d="M13.0241 15.5939C13.1339 17.4267 14.281 18.9838 15.8935 19.6997C14.387 19.9983 13.0629 20.7952 12.1047 21.9092H8.02815C7.32225 21.9092 6.75 21.3437 6.75 20.6461C6.75 17.8558 9.03899 15.5938 11.8626 15.5938H12.9987C13.0072 15.5938 13.0156 15.5938 13.0241 15.5939Z" fill="#4DB9E9"/>
</svg>
