<svg width="36" height="36" viewBox="0 0 36 36" fill="none" xmlns="http://www.w3.org/2000/svg">
<rect width="36" height="36" rx="8" fill="white"/>
<path d="M17.9998 6.75C17.487 6.75 16.9833 6.88678 16.5391 7.14662L9.3406 11.321L9.33726 11.323C9.16006 11.4268 8.99484 11.5488 8.84394 11.6865L17.9982 17.0604L27.1543 11.6853C27.0038 11.5481 26.839 11.4265 26.6623 11.323L19.4623 7.14769L19.4605 7.14666C19.0163 6.8868 18.5125 6.75 17.9998 6.75Z" fill="#33CC7F"/>
<path d="M7.87476 13.8915C7.87499 13.6577 7.90243 13.4256 7.95585 13.2001L17.1319 18.5868V29.25C16.9262 29.1851 16.7273 29.0971 16.539 28.987L16.5373 28.986L9.34061 24.8126L9.33726 24.8107C8.89304 24.5504 8.52408 24.1762 8.26738 23.7255C8.01069 23.2748 7.87528 22.7636 7.87476 22.243V13.8915Z" fill="#33CC7F"/>
<path d="M18.8676 29.25C19.0734 29.1851 19.2723 29.0971 19.4605 28.987L19.4623 28.986L26.6589 24.8126L26.6623 24.8107C27.1065 24.5504 27.4754 24.1762 27.7321 23.7255C27.9888 23.2748 28.1242 22.7627 28.1248 22.2421V13.8906C28.1245 13.6564 28.097 13.4241 28.0434 13.1983L18.8676 18.5849V29.25Z" fill="#33CC7F"/>
</svg>
