<svg width="16" height="16" viewBox="0 0 16 16" fill="none" xmlns="http://www.w3.org/2000/svg">
<path d="M3.76057 14.736C3.83081 14.736 3.90104 14.7423 3.96488 14.7423C5.82921 14.7423 7.69354 14.7423 9.55786 14.7423C9.77494 14.7423 9.99202 14.7298 10.2091 14.6922C10.5539 14.6296 10.8731 14.8424 10.9497 15.1803C11.02 15.4994 10.8156 15.8248 10.4836 15.9061C10.2602 15.9625 10.0239 15.9875 9.78771 15.9875C7.76377 15.9875 5.73982 16 3.71588 15.9875C1.84517 15.975 0.217079 14.492 0.0255387 12.6774C0.00638468 12.5022 0 12.3269 0 12.1517C0 9.36723 0 6.58271 0 3.7982C0 1.97106 1.23224 0.4693 3.04549 0.0813453C3.31365 0.0250293 3.5818 0 3.84996 0C5.78452 0 7.71907 0 9.64725 0C11.5818 0 13.1524 1.3203 13.4653 3.19124C13.4908 3.33516 13.5036 3.47908 13.5036 3.62925C13.51 4.32382 13.51 5.02464 13.5036 5.7192C13.5036 6.17599 13.1077 6.46383 12.6736 6.33868C12.4054 6.26359 12.233 6.03207 12.233 5.7192C12.233 5.08095 12.233 4.44896 12.233 3.81072C12.233 2.33399 11.1221 1.24521 9.62171 1.24521C7.72546 1.24521 5.82921 1.24521 3.93296 1.24521C3.8755 1.24521 3.81804 1.25147 3.76057 1.25147C3.71588 1.25147 3.6648 1.24521 3.62011 1.25147C2.30487 1.3641 1.27694 2.44036 1.27694 3.73563C1.27055 6.57646 1.27694 9.41729 1.27694 12.2581C1.27694 12.765 1.42378 13.2343 1.72386 13.6472C2.21548 14.3418 2.89226 14.7172 3.76057 14.736Z" fill="#006AFE"/>
<path d="M3.76056 14.736C2.89225 14.711 2.21547 14.3356 1.71747 13.6472C1.41739 13.2343 1.27054 12.765 1.27054 12.2581C1.27054 9.41729 1.26415 6.57646 1.27054 3.73563C1.27692 2.44036 2.30486 1.3641 3.6201 1.25772C3.66479 1.25147 3.71587 1.25772 3.76056 1.25772C3.74779 1.35158 3.65841 1.37036 3.60094 1.42042C3.02632 1.95229 2.67517 2.59679 2.57301 3.3727C2.55386 3.52914 2.54747 3.68557 2.54747 3.83575C2.54747 6.67032 2.54109 9.51115 2.55386 12.3457C2.55386 13.0403 2.80286 13.666 3.25617 14.2041C3.39664 14.3668 3.5371 14.5295 3.71587 14.6547C3.74141 14.6734 3.74779 14.711 3.76056 14.736Z" fill="#B2D0FE"/>
<path d="M16 10.3246C16 10.4998 15.8467 10.7251 15.6105 10.8189C15.3424 10.9253 15.0997 10.869 14.8954 10.6687C14.3783 10.1556 13.8611 9.63628 13.3439 9.12318C12.9992 8.77903 12.6608 8.77903 12.3096 9.12318C11.7861 9.63628 11.2625 10.1556 10.7326 10.6687C10.3623 11.0317 9.7813 10.8877 9.64722 10.3997C9.58337 10.1682 9.64722 9.96166 9.81322 9.79897C10.3878 9.22956 10.9561 8.65388 11.5499 8.09698C12.2458 7.43996 13.4525 7.45873 14.1484 8.13452C14.7039 8.67891 15.253 9.22956 15.802 9.7802C15.9234 9.91786 16 10.068 16 10.3246Z" fill="#FED500"/>
<path d="M13.51 13.0591C13.51 13.8287 13.51 14.5984 13.51 15.368C13.51 15.6684 13.3185 15.8936 13.0311 15.9687C12.7502 16.0375 12.4757 15.9249 12.3224 15.6809C12.2586 15.5808 12.2394 15.4681 12.2394 15.3555C12.2394 13.8224 12.2394 12.2831 12.2394 10.7501C12.2394 10.3621 12.5076 10.0931 12.8779 10.0931C13.2482 10.0931 13.5164 10.3621 13.5164 10.7501C13.5164 11.5198 13.51 12.2894 13.51 13.0591Z" fill="#FED500"/>
<path d="M9.68558 6.37622C9.28335 6.37622 8.88111 6.39499 8.49165 6.25733C7.59779 5.95072 6.99125 5.13101 6.98486 4.20492C6.98486 3.86077 6.98486 3.51662 6.98486 3.17246C6.98486 2.772 7.24664 2.50293 7.62333 2.50293C8.00003 2.50293 8.25541 2.772 8.2618 3.17246C8.2618 3.5041 8.2618 3.842 8.2618 4.17364C8.26818 4.71177 8.6768 5.11849 9.23227 5.12475C9.57704 5.12475 9.92181 5.12475 10.2666 5.12475C10.6561 5.12475 10.937 5.39382 10.937 5.75049C10.937 6.10715 10.6497 6.36996 10.2666 6.37622C10.0687 6.37622 9.87712 6.37622 9.68558 6.37622Z" fill="#006AFE"/>
</svg>
