<svg width="13" height="16" viewBox="0 0 13 16" fill="none" xmlns="http://www.w3.org/2000/svg">
<path d="M2.65207 14.7382C2.70211 14.7382 2.7584 14.7445 2.80844 14.7445C5.3792 14.7445 7.94996 14.7445 10.5145 14.7445C10.9898 14.7445 11.2338 14.5006 11.2338 14.0252C11.2338 10.4224 11.2338 6.8133 11.2338 3.21048C11.2338 2.77264 11.0149 2.54121 10.577 2.50993C10.233 2.48492 9.97654 2.20345 9.98905 1.86568C10.0016 1.52792 10.2705 1.26521 10.6208 1.26521C11.5903 1.24645 12.4472 2.05958 12.4848 3.03535C12.4848 3.09789 12.4848 3.16044 12.4848 3.22299C12.4848 6.82581 12.4848 10.4349 12.4848 14.0377C12.4848 15.1823 11.6779 15.9955 10.5332 15.9955C7.67474 15.9955 4.81001 15.9955 1.95152 15.9955C0.80688 15.9955 0 15.1823 0 14.0377C0 10.4286 0 6.81955 0 3.21048C0 2.07835 0.813135 1.26521 1.94527 1.26521C2.53948 1.26521 3.1337 1.26521 3.72166 1.26521C3.82174 1.26521 3.85926 1.23394 3.90305 1.14637C4.24081 0.433313 4.80375 0.0392548 5.59187 0.0204901C6.12353 0.00798036 6.6552 -0.029549 7.18061 0.0455097C8.0688 0.176862 8.74433 0.983743 8.73808 1.89696C8.73182 2.79766 8.06255 3.60454 7.17435 3.72338C6.59265 3.8047 5.99844 3.75466 5.41673 3.74215C5.30414 3.74215 5.19156 3.70462 5.07897 3.67334C4.52854 3.49821 4.12822 3.14793 3.90305 2.61627C3.86552 2.5287 3.82174 2.50368 3.73417 2.50368C3.37764 2.50993 3.01486 2.50993 2.65833 2.50993C2.43315 2.50993 2.21423 2.50368 1.98905 2.50368C1.48866 2.50368 1.25723 2.74137 1.25723 3.2355C1.25723 6.82581 1.25723 10.4161 1.25723 14.0002C1.25723 14.0439 1.25723 14.0815 1.25723 14.1253C1.26974 14.463 1.53245 14.7257 1.86396 14.732C2.12666 14.7507 2.38937 14.7382 2.65207 14.7382ZM6.24238 2.50993C6.44879 2.50993 6.6552 2.50993 6.86787 2.50993C7.22439 2.50368 7.49335 2.23472 7.49335 1.8907C7.49335 1.54668 7.22439 1.27147 6.87412 1.26521C6.4613 1.25896 6.04222 1.25896 5.6294 1.26521C5.27287 1.27147 5.00391 1.54043 5.00391 1.88445C5.00391 2.22846 5.27287 2.50368 5.62314 2.50993C5.8233 2.50993 6.02971 2.50993 6.24238 2.50993Z" fill="#006AFE"/>
<path d="M2.65207 14.7383C2.38937 14.7383 2.12041 14.7445 1.8577 14.7445C1.51994 14.7383 1.26349 14.4755 1.25098 14.1378C1.25098 14.094 1.25098 14.0565 1.25098 14.0127C1.25098 10.4224 1.25098 6.83208 1.25098 3.24803C1.25098 2.74764 1.48866 2.5162 1.9828 2.5162C2.20797 2.5162 2.4269 2.52246 2.65207 2.52246C2.50195 2.81018 2.48944 3.11667 2.4957 3.42942C2.50195 4.37391 2.4957 5.32465 2.50195 6.26914C2.50195 6.33169 2.48319 6.39423 2.52697 6.45053C2.4957 6.57563 2.4957 6.70072 2.52697 6.82582C2.4957 6.8571 2.50195 6.90088 2.50195 6.94466C2.50195 7.57015 2.50195 8.2019 2.50195 8.82738C2.50195 8.87117 2.4957 8.9087 2.52697 8.94623C2.4957 9.07133 2.4957 9.19642 2.52697 9.32152C2.4957 9.3528 2.50195 9.39658 2.50195 9.44036C2.50195 10.0659 2.50195 10.6976 2.50195 11.3231C2.50195 11.3669 2.4957 11.4044 2.52697 11.4419C2.4957 11.567 2.4957 11.6921 2.52697 11.8172C2.48319 11.8673 2.50195 11.9236 2.50195 11.9798C2.50195 12.5991 2.50821 13.2183 2.50195 13.8375C2.48944 14.144 2.50195 14.4568 2.65207 14.7383Z" fill="#B2D0FE"/>
<path d="M7.49333 7.25113C6.86784 7.25113 6.24235 7.25113 5.62312 7.25113C5.32289 7.25113 5.09146 7.06974 5.02265 6.78201C4.95385 6.5068 5.06018 6.23784 5.31038 6.08772C5.41046 6.02517 5.52304 6.00641 5.63563 6.00641C6.8741 6.00641 8.11257 6.00641 9.35103 6.00641C9.72007 6.00641 9.98903 6.27537 9.98903 6.6319C9.98903 6.98217 9.71382 7.25739 9.35103 7.25739C8.7318 7.25739 8.11257 7.25113 7.49333 7.25113Z" fill="#FED500"/>
<path d="M7.48712 9.75308C6.86789 9.75308 6.24866 9.75308 5.62942 9.75308C5.32919 9.75308 5.09776 9.57169 5.0227 9.29022C4.94764 9.00875 5.06023 8.73354 5.31668 8.58342C5.41676 8.52713 5.52934 8.50211 5.64819 8.50211C6.8804 8.50211 8.11261 8.50211 9.34482 8.50211C9.72012 8.50211 9.99533 8.77107 9.99533 9.13385C9.98908 9.48412 9.72012 9.74683 9.34482 9.75308C8.71933 9.75308 8.10636 9.75308 7.48712 9.75308Z" fill="#FED500"/>
<path d="M7.49333 12.2488C6.86784 12.2488 6.24235 12.2488 5.62312 12.2488C5.32289 12.2488 5.09771 12.0674 5.02265 11.7797C4.95385 11.5044 5.06018 11.2355 5.31038 11.0854C5.41046 11.0228 5.52304 11.0041 5.63563 11.0041C6.8741 11.0041 8.11257 11.0041 9.35103 11.0041C9.72007 11.0041 9.98903 11.273 9.98903 11.6295C9.98903 11.9798 9.71382 12.2488 9.35103 12.255C8.7318 12.2488 8.11257 12.2488 7.49333 12.2488Z" fill="#006AFE"/>
<path d="M2.52071 6.81957C2.48943 6.69447 2.48943 6.56937 2.52071 6.44427C2.68959 5.95639 3.30882 5.85631 3.61531 6.25663C3.83424 6.54435 3.75918 6.95717 3.45894 7.15733C3.15871 7.35123 2.76465 7.25741 2.58326 6.94466C2.55824 6.90088 2.54573 6.8571 2.52071 6.81957Z" fill="#006AFE"/>
<path d="M2.52071 9.31526C2.48943 9.19017 2.48943 9.06507 2.52071 8.93997C2.68959 8.45209 3.30882 8.35201 3.61531 8.75232C3.83424 9.04005 3.75918 9.45287 3.45894 9.65303C3.15871 9.84693 2.76465 9.7531 2.58326 9.44036C2.55824 9.39658 2.54573 9.35279 2.52071 9.31526Z" fill="#006AFE"/>
<path d="M2.52071 11.811C2.48943 11.6859 2.48943 11.5608 2.52071 11.4357C2.68959 10.9478 3.30882 10.8477 3.61531 11.248C3.83424 11.5357 3.75918 11.9486 3.45894 12.1487C3.15871 12.3426 2.76465 12.2488 2.58326 11.9361C2.55824 11.8985 2.54573 11.8547 2.52071 11.811Z" fill="#006AFE"/>
<path d="M6.24239 2.50994C6.03597 2.50994 5.82956 2.5162 5.6169 2.50994C5.26662 2.50369 4.99141 2.22847 4.99766 1.88445C4.99766 1.54043 5.27288 1.26522 5.62315 1.26522C6.03597 1.25896 6.45505 1.25896 6.86787 1.26522C7.21815 1.27147 7.49336 1.54669 7.48711 1.89071C7.48711 2.23473 7.21189 2.50369 6.86162 2.50994C6.65521 2.50994 6.4488 2.50994 6.24239 2.50994Z" fill="white"/>
</svg>
