<svg width="36" height="36" viewBox="0 0 36 36" fill="none" xmlns="http://www.w3.org/2000/svg">
<rect width="36" height="36" rx="8" fill="white"/>
<path fill-rule="evenodd" clip-rule="evenodd" d="M11.8909 8.19083C12.0454 7.99201 12.2879 7.875 12.5455 7.875H23.4545C23.7121 7.875 23.9546 7.99201 24.1091 8.19083L26.8364 11.7C26.9426 11.8367 27 12.0029 27 12.1737V24.4558C27 25.1306 26.7222 25.7777 26.2278 26.2548C25.7334 26.732 25.0628 27 24.3636 27H11.6364C10.9372 27 10.2666 26.732 9.77217 26.2548C9.27776 25.7777 9 25.1306 9 24.4558V12.1737C9 12.0029 9.05742 11.8367 9.16364 11.7L11.8909 8.19083Z" fill="#F49966"/>
<path fill-rule="evenodd" clip-rule="evenodd" d="M14.3643 14.894C14.8162 14.894 15.1825 15.2475 15.1825 15.6835C15.1825 16.4048 15.4794 17.0966 16.0079 17.6066C16.5364 18.1166 17.2533 18.4032 18.0007 18.4032C18.7481 18.4032 19.4649 18.1166 19.9934 17.6066C20.522 17.0966 20.8189 16.4048 20.8189 15.6835C20.8189 15.2475 21.1852 14.894 21.6371 14.894C22.0889 14.894 22.4552 15.2475 22.4552 15.6835C22.4552 16.8236 21.9859 17.917 21.1505 18.7232C20.3151 19.5294 19.1821 19.9823 18.0007 19.9823C16.8193 19.9823 15.6862 19.5294 14.8508 18.7232C14.0155 17.917 13.5461 16.8236 13.5461 15.6835C13.5461 15.2475 13.9125 14.894 14.3643 14.894Z" fill="white"/>
<path fill-rule="evenodd" clip-rule="evenodd" d="M7.61938 12.1736C7.61938 11.7375 7.9857 11.384 8.43757 11.384L28.6876 11.384C29.1395 11.384 29.5058 11.7375 29.5058 12.1736C29.5058 12.6097 29.1395 12.9632 28.6876 12.9632H8.43757C7.9857 12.9632 7.61938 12.6097 7.61938 12.1736Z" fill="white"/>
</svg>
