<svg width="36" height="36" viewBox="0 0 36 36" fill="none" xmlns="http://www.w3.org/2000/svg">
<rect width="36" height="36" rx="8" fill="#006AFE"/>
<mask id="path-2-inside-1_549_197" fill="white">
<path fill-rule="evenodd" clip-rule="evenodd" d="M21.8494 5.5C22.1959 5.5 22.4768 5.77243 22.4768 6.1085V7.17039C22.4768 7.50645 22.1959 7.77889 21.8494 7.77889C21.5029 7.77889 21.222 7.50645 21.222 7.17039V6.1085C21.222 5.77243 21.5029 5.5 21.8494 5.5ZM20.0412 17.0614C20.0412 16.7254 20.322 16.4529 20.6685 16.4529H23.1064C23.4529 16.4529 23.7337 16.7254 23.7337 17.0614C23.7337 17.3975 23.4529 17.6699 23.1064 17.6699H20.6685C20.322 17.6699 20.0412 17.3975 20.0412 17.0614ZM18.032 7.38793C17.787 7.15029 17.3898 7.15029 17.1448 7.38792C16.8998 7.62555 16.8998 8.01083 17.1448 8.24846L17.9221 9.00241C18.1671 9.24004 18.5643 9.24005 18.8093 9.00242C19.0543 8.76479 19.0543 8.37951 18.8093 8.14187L18.032 7.38793ZM15.2001 11.949C15.2001 11.6129 15.481 11.3405 15.8275 11.3405H16.9223C17.2688 11.3405 17.5497 11.6129 17.5497 11.949C17.5497 12.285 17.2688 12.5575 16.9223 12.5575H15.8275C15.481 12.5575 15.2001 12.285 15.2001 11.949ZM26.7778 11.3405C26.4313 11.3405 26.1504 11.6129 26.1504 11.949C26.1504 12.285 26.4313 12.5575 26.7778 12.5575H27.8726C28.2191 12.5575 28.5 12.285 28.5 11.949C28.5 11.6129 28.2191 11.3405 27.8726 11.3405H26.7778ZM26.5514 7.38792C26.7965 7.62555 26.7965 8.01083 26.5515 8.24846L25.7741 9.00241C25.5291 9.24004 25.1319 9.24005 24.8869 9.00242C24.6419 8.76479 24.6419 8.37951 24.8869 8.14187L25.6642 7.38793C25.9092 7.15029 26.3064 7.15029 26.5514 7.38792ZM21.8501 8.82008C20.0681 8.82008 18.6235 10.2212 18.6235 11.9495C18.6235 13.0642 19.2245 14.0428 20.1293 14.5972V15.1833C20.1293 15.4418 20.3419 15.6513 20.6043 15.6513H23.0959C23.3582 15.6513 23.5709 15.4418 23.5709 15.1833V14.5972C24.4757 14.0428 25.0766 13.0642 25.0766 11.9495C25.0766 10.2212 23.6321 8.82008 21.8501 8.82008Z"/>
<path fill-rule="evenodd" clip-rule="evenodd" d="M14.4977 11.117H10.925C10.138 11.117 9.5 11.7457 9.5 12.5213V26.0957C9.5 26.8713 10.138 27.5 10.925 27.5H21.3753C22.1623 27.5 22.8003 26.8713 22.8003 26.0957V18.6061H20.6685C19.8116 18.6061 19.0911 17.9285 19.0911 17.0614C19.0911 16.8503 19.1339 16.6504 19.2109 16.4688C19.1443 16.4891 19.0735 16.5 19.0002 16.5H13.3001C12.9066 16.5 12.5876 16.1856 12.5876 15.7979C12.5876 15.4101 12.9066 15.0957 13.3001 15.0957H19.0002C19.062 15.0957 19.122 15.1035 19.1792 15.1181V15.0752C18.5761 14.5862 18.1146 13.9329 17.8696 13.1839C17.6039 13.3791 17.2747 13.4936 16.9223 13.4936H15.8275C14.9706 13.4936 14.2501 12.816 14.2501 11.949C14.2501 11.6403 14.3414 11.3556 14.4977 11.117ZM13.3001 18.8404C12.9066 18.8404 12.5876 19.1548 12.5876 19.5426C12.5876 19.9303 12.9066 20.2447 13.3001 20.2447H19.0002C19.3937 20.2447 19.7127 19.9303 19.7127 19.5426C19.7127 19.1548 19.3937 18.8404 19.0002 18.8404H13.3001ZM12.5876 23.2872C12.5876 22.8995 12.9066 22.5851 13.3001 22.5851H19.0002C19.3937 22.5851 19.7127 22.8995 19.7127 23.2872C19.7127 23.675 19.3937 23.9894 19.0002 23.9894H13.3001C12.9066 23.9894 12.5876 23.675 12.5876 23.2872Z"/>
<path d="M15.2001 11.949C15.2001 11.6129 15.481 11.3405 15.8275 11.3405H16.9223C17.2688 11.3405 17.5497 11.6129 17.5497 11.949C17.5497 12.285 17.2688 12.5575 16.9223 12.5575H15.8275C15.481 12.5575 15.2001 12.285 15.2001 11.949Z"/>
</mask>
<path fill-rule="evenodd" clip-rule="evenodd" d="M21.8494 5.5C22.1959 5.5 22.4768 5.77243 22.4768 6.1085V7.17039C22.4768 7.50645 22.1959 7.77889 21.8494 7.77889C21.5029 7.77889 21.222 7.50645 21.222 7.17039V6.1085C21.222 5.77243 21.5029 5.5 21.8494 5.5ZM20.0412 17.0614C20.0412 16.7254 20.322 16.4529 20.6685 16.4529H23.1064C23.4529 16.4529 23.7337 16.7254 23.7337 17.0614C23.7337 17.3975 23.4529 17.6699 23.1064 17.6699H20.6685C20.322 17.6699 20.0412 17.3975 20.0412 17.0614ZM18.032 7.38793C17.787 7.15029 17.3898 7.15029 17.1448 7.38792C16.8998 7.62555 16.8998 8.01083 17.1448 8.24846L17.9221 9.00241C18.1671 9.24004 18.5643 9.24005 18.8093 9.00242C19.0543 8.76479 19.0543 8.37951 18.8093 8.14187L18.032 7.38793ZM15.2001 11.949C15.2001 11.6129 15.481 11.3405 15.8275 11.3405H16.9223C17.2688 11.3405 17.5497 11.6129 17.5497 11.949C17.5497 12.285 17.2688 12.5575 16.9223 12.5575H15.8275C15.481 12.5575 15.2001 12.285 15.2001 11.949ZM26.7778 11.3405C26.4313 11.3405 26.1504 11.6129 26.1504 11.949C26.1504 12.285 26.4313 12.5575 26.7778 12.5575H27.8726C28.2191 12.5575 28.5 12.285 28.5 11.949C28.5 11.6129 28.2191 11.3405 27.8726 11.3405H26.7778ZM26.5514 7.38792C26.7965 7.62555 26.7965 8.01083 26.5515 8.24846L25.7741 9.00241C25.5291 9.24004 25.1319 9.24005 24.8869 9.00242C24.6419 8.76479 24.6419 8.37951 24.8869 8.14187L25.6642 7.38793C25.9092 7.15029 26.3064 7.15029 26.5514 7.38792ZM21.8501 8.82008C20.0681 8.82008 18.6235 10.2212 18.6235 11.9495C18.6235 13.0642 19.2245 14.0428 20.1293 14.5972V15.1833C20.1293 15.4418 20.3419 15.6513 20.6043 15.6513H23.0959C23.3582 15.6513 23.5709 15.4418 23.5709 15.1833V14.5972C24.4757 14.0428 25.0766 13.0642 25.0766 11.9495C25.0766 10.2212 23.6321 8.82008 21.8501 8.82008Z" fill="white"/>
<path fill-rule="evenodd" clip-rule="evenodd" d="M14.4977 11.117H10.925C10.138 11.117 9.5 11.7457 9.5 12.5213V26.0957C9.5 26.8713 10.138 27.5 10.925 27.5H21.3753C22.1623 27.5 22.8003 26.8713 22.8003 26.0957V18.6061H20.6685C19.8116 18.6061 19.0911 17.9285 19.0911 17.0614C19.0911 16.8503 19.1339 16.6504 19.2109 16.4688C19.1443 16.4891 19.0735 16.5 19.0002 16.5H13.3001C12.9066 16.5 12.5876 16.1856 12.5876 15.7979C12.5876 15.4101 12.9066 15.0957 13.3001 15.0957H19.0002C19.062 15.0957 19.122 15.1035 19.1792 15.1181V15.0752C18.5761 14.5862 18.1146 13.9329 17.8696 13.1839C17.6039 13.3791 17.2747 13.4936 16.9223 13.4936H15.8275C14.9706 13.4936 14.2501 12.816 14.2501 11.949C14.2501 11.6403 14.3414 11.3556 14.4977 11.117ZM13.3001 18.8404C12.9066 18.8404 12.5876 19.1548 12.5876 19.5426C12.5876 19.9303 12.9066 20.2447 13.3001 20.2447H19.0002C19.3937 20.2447 19.7127 19.9303 19.7127 19.5426C19.7127 19.1548 19.3937 18.8404 19.0002 18.8404H13.3001ZM12.5876 23.2872C12.5876 22.8995 12.9066 22.5851 13.3001 22.5851H19.0002C19.3937 22.5851 19.7127 22.8995 19.7127 23.2872C19.7127 23.675 19.3937 23.9894 19.0002 23.9894H13.3001C12.9066 23.9894 12.5876 23.675 12.5876 23.2872Z" fill="white"/>
<path d="M15.2001 11.949C15.2001 11.6129 15.481 11.3405 15.8275 11.3405H16.9223C17.2688 11.3405 17.5497 11.6129 17.5497 11.949C17.5497 12.285 17.2688 12.5575 16.9223 12.5575H15.8275C15.481 12.5575 15.2001 12.285 15.2001 11.949Z" fill="white"/>
<path d="M20.3151 16.5586L20.7293 17.1839L20.7293 17.1839L20.3151 16.5586ZM20.3165 15.5557L19.8659 16.1552L19.8659 16.1552L20.3165 15.5557ZM15.8275 10.5905C15.0886 10.5905 14.4501 11.1773 14.4501 11.949H15.9501C15.9501 12.0486 15.8735 12.0905 15.8275 12.0905V10.5905ZM16.9223 10.5905H15.8275V12.0905H16.9223V10.5905ZM18.2997 11.949C18.2997 11.1773 17.6613 10.5905 16.9223 10.5905V12.0905C16.8764 12.0905 16.7997 12.0486 16.7997 11.949H18.2997ZM16.9223 13.3075C17.6613 13.3075 18.2997 12.7207 18.2997 11.949H16.7997C16.7997 11.8494 16.8764 11.8075 16.9223 11.8075V13.3075ZM15.8275 13.3075H16.9223V11.8075H15.8275V13.3075ZM14.4501 11.949C14.4501 12.7207 15.0886 13.3075 15.8275 13.3075V11.8075C15.8735 11.8075 15.9501 11.8494 15.9501 11.949H14.4501ZM19.901 15.9333C19.5403 16.1722 19.2912 16.5841 19.2912 17.0614H20.7912C20.7912 17.1209 20.7591 17.1641 20.7293 17.1839L19.901 15.9333ZM22.8003 14.9013H20.6043V16.4013H22.8003V14.9013ZM20.6043 14.9013C20.6633 14.9013 20.7208 14.9213 20.7671 14.9561L19.8659 16.1552C20.0719 16.3101 20.3289 16.4013 20.6043 16.4013V14.9013ZM20.7671 14.9561C20.8315 15.0046 20.8793 15.0868 20.8793 15.1833H19.3793C19.3793 15.5835 19.5738 15.9357 19.8659 16.1552L20.7671 14.9561ZM19.3735 11.9495C19.3735 11.7313 19.4039 11.521 19.4605 11.3218L18.0175 10.9123C17.9235 11.2432 17.8735 11.5912 17.8735 11.9495H19.3735ZM20.6685 15.7029C20.387 15.7029 20.1218 15.7871 19.901 15.9333L20.7293 17.1839C20.7098 17.1968 20.6879 17.2029 20.6685 17.2029V15.7029ZM17.1448 7.38792L16.1004 6.31116L17.1448 7.38792ZM18.032 7.38793L16.9877 8.46466V8.46466L18.032 7.38793ZM17.1448 8.24846L16.1004 9.32519V9.32519L17.1448 8.24846ZM17.9221 9.00241L18.9664 7.92568L17.9221 9.00241ZM18.8093 8.14187L19.8537 7.06515V7.06515L18.8093 8.14187ZM26.5515 8.24846L25.5071 7.17173V7.17173L26.5515 8.24846ZM26.5514 7.38792L25.5071 8.46467L25.5071 8.46467L26.5514 7.38792ZM25.7741 9.00241L24.7298 7.92568L24.7298 7.92568L25.7741 9.00241ZM24.8869 9.00242L23.8426 10.0792L23.8426 10.0792L24.8869 9.00242ZM24.8869 8.14187L25.9312 9.2186V9.2186L24.8869 8.14187ZM25.6642 7.38793L26.7085 8.46466L26.7085 8.46465L25.6642 7.38793ZM20.1293 14.5972H21.6293C21.6293 14.0752 21.3579 13.5908 20.9129 13.3181L20.1293 14.5972ZM23.5709 14.5972L22.7873 13.3181C22.3422 13.5908 22.0709 14.0752 22.0709 14.5972H23.5709ZM14.4977 11.117L15.7526 11.9388L17.273 9.61702H14.4977V11.117ZM22.8003 18.6061H24.3003V17.1061H22.8003V18.6061ZM19.2109 16.4688L20.5918 17.0544L21.8451 14.0986L18.7739 15.0339L19.2109 16.4688ZM19.1792 15.1181L18.8086 16.5716L20.6792 17.0486V15.1181H19.1792ZM19.1792 15.0752H20.6792V14.3602L20.1239 13.91L19.1792 15.0752ZM17.8696 13.1839L19.2952 12.7176L18.651 10.7481L16.9813 11.9752L17.8696 13.1839ZM23.9768 6.1085C23.9768 4.90112 22.9808 4 21.8494 4V7C21.411 7 20.9768 6.64374 20.9768 6.1085H23.9768ZM23.9768 7.17039V6.1085H20.9768V7.17039H23.9768ZM21.8494 9.27889C22.9808 9.27889 23.9768 8.37776 23.9768 7.17039H20.9768C20.9768 6.63514 21.411 6.27889 21.8494 6.27889V9.27889ZM19.722 7.17039C19.722 8.37776 20.718 9.27889 21.8494 9.27889V6.27889C22.2878 6.27889 22.722 6.63515 22.722 7.17039H19.722ZM19.722 6.1085V7.17039H22.722V6.1085H19.722ZM21.8494 4C20.718 4 19.722 4.90112 19.722 6.1085H22.722C22.722 6.64374 22.2878 7 21.8494 7V4ZM20.6685 14.9529C19.5372 14.9529 18.5412 15.8541 18.5412 17.0614H21.5412C21.5412 17.5967 21.1069 17.9529 20.6685 17.9529V14.9529ZM23.1064 14.9529H20.6685V17.9529H23.1064V14.9529ZM25.2337 17.0614C25.2337 15.8541 24.2377 14.9529 23.1064 14.9529V17.9529C22.668 17.9529 22.2337 17.5967 22.2337 17.0614H25.2337ZM23.1064 19.1699C24.2377 19.1699 25.2337 18.2688 25.2337 17.0614H22.2337C22.2337 16.5262 22.668 16.1699 23.1064 16.1699V19.1699ZM20.6685 19.1699H23.1064V16.1699H20.6685V19.1699ZM18.5412 17.0614C18.5412 18.2688 19.5372 19.1699 20.6685 19.1699V16.1699C21.1069 16.1699 21.5412 16.5262 21.5412 17.0614H18.5412ZM18.1891 8.46467C17.8522 8.79138 17.3245 8.79137 16.9877 8.46466L19.0764 6.3112C18.2495 5.50921 16.9273 5.5092 16.1004 6.31116L18.1891 8.46467ZM18.1891 7.17173C18.5516 7.52338 18.5516 8.11304 18.1891 8.46467L16.1004 6.31116C15.2479 7.13806 15.2479 8.49828 16.1004 9.32519L18.1891 7.17173ZM18.9664 7.92568L18.1891 7.17173L16.1004 9.32519L16.8777 10.0791L18.9664 7.92568ZM17.765 7.92566C18.1019 7.59895 18.6296 7.59896 18.9664 7.92568L16.8777 10.0791C17.7046 10.8811 19.0268 10.8811 19.8536 10.0792L17.765 7.92566ZM17.765 9.2186C17.4024 8.86696 17.4025 8.2773 17.765 7.92566L19.8536 10.0792C20.7062 9.25228 20.7062 7.89206 19.8537 7.06515L17.765 9.2186ZM16.9877 8.46466L17.765 9.2186L19.8537 7.06515L19.0764 6.3112L16.9877 8.46466ZM27.6504 11.949C27.6504 12.4842 27.2162 12.8405 26.7778 12.8405V9.84048C25.6464 9.84048 24.6504 10.7416 24.6504 11.949H27.6504ZM26.7778 11.0575C27.2162 11.0575 27.6504 11.4137 27.6504 11.949H24.6504C24.6504 13.1563 25.6464 14.0575 26.7778 14.0575V11.0575ZM27.8726 11.0575H26.7778V14.0575H27.8726V11.0575ZM27 11.949C27 11.4137 27.4342 11.0575 27.8726 11.0575V14.0575C29.004 14.0575 30 13.1563 30 11.949H27ZM27.8726 12.8405C27.4342 12.8405 27 12.4842 27 11.949H30C30 10.7416 29.004 9.84048 27.8726 9.84048V12.8405ZM26.7778 12.8405H27.8726V9.84048H26.7778V12.8405ZM27.5958 9.32519C28.4484 8.49828 28.4483 7.13806 27.5958 6.31116L25.5071 8.46467C25.1446 8.11304 25.1446 7.52338 25.5071 7.17173L27.5958 9.32519ZM26.8185 10.0791L27.5958 9.32519L25.5071 7.17173L24.7298 7.92568L26.8185 10.0791ZM23.8426 10.0792C24.6694 10.8811 25.9916 10.8811 26.8185 10.0791L24.7298 7.92568C25.0666 7.59896 25.5943 7.59896 25.9312 7.92566L23.8426 10.0792ZM23.8425 7.06515C22.99 7.89206 22.99 9.25228 23.8426 10.0792L25.9312 7.92566C26.2938 8.2773 26.2938 8.86696 25.9312 9.2186L23.8425 7.06515ZM24.6198 6.3112L23.8425 7.06515L25.9312 9.2186L26.7085 8.46466L24.6198 6.3112ZM27.5958 6.31116C26.7689 5.5092 25.4467 5.50921 24.6198 6.3112L26.7085 8.46465C26.3717 8.79137 25.844 8.79138 25.5071 8.46467L27.5958 6.31116ZM20.1235 11.9495C20.1235 11.0925 20.853 10.3201 21.8501 10.3201V7.32008C19.2832 7.32008 17.1235 9.34986 17.1235 11.9495H20.1235ZM20.9129 13.3181C20.422 13.0174 20.1235 12.5067 20.1235 11.9495H17.1235C17.1235 13.6217 18.027 15.0683 19.3456 15.8762L20.9129 13.3181ZM21.6293 15.1833V14.5972H18.6293V15.1833H21.6293ZM20.6043 14.1513C21.1495 14.1513 21.6293 14.5926 21.6293 15.1833H18.6293C18.6293 16.2909 19.5344 17.1513 20.6043 17.1513V14.1513ZM23.0959 14.1513H20.6043V17.1513H23.0959V14.1513ZM22.0709 15.1833C22.0709 14.5927 22.5507 14.1513 23.0959 14.1513V17.1513C24.1658 17.1513 25.0709 16.2909 25.0709 15.1833H22.0709ZM22.0709 14.5972V15.1833H25.0709V14.5972H22.0709ZM23.5766 11.9495C23.5766 12.5067 23.2782 13.0174 22.7873 13.3181L24.3545 15.8762C25.6732 15.0683 26.5766 13.6217 26.5766 11.9495H23.5766ZM21.8501 10.3201C22.8472 10.3201 23.5766 11.0925 23.5766 11.9495H26.5766C26.5766 9.34986 24.4169 7.32008 21.8501 7.32008V10.3201ZM14.4977 9.61702H10.925V12.617H14.4977V9.61702ZM10.925 9.61702C9.33043 9.61702 8 10.8966 8 12.5213H11C11 12.5349 10.9969 12.5512 10.9904 12.5663C10.9844 12.5803 10.9769 12.5902 10.9702 12.5967C10.9566 12.6102 10.9381 12.617 10.925 12.617V9.61702ZM8 12.5213V26.0957H11V12.5213H8ZM8 26.0957C8 27.7204 9.33043 29 10.925 29V26C10.9381 26 10.9566 26.0068 10.9702 26.0203C10.9769 26.0268 10.9844 26.0367 10.9904 26.0507C10.9969 26.0658 11 26.0821 11 26.0957H8ZM10.925 29H21.3753V26H10.925V29ZM21.3753 29C22.9699 29 24.3003 27.7204 24.3003 26.0957H21.3003C21.3003 26.0821 21.3034 26.0658 21.3099 26.0507C21.3159 26.0367 21.3234 26.0269 21.3301 26.0203C21.3437 26.0068 21.3622 26 21.3753 26V29ZM24.3003 26.0957V18.6061H21.3003V26.0957H24.3003ZM22.8003 17.1061H20.6685V20.1061H22.8003V17.1061ZM20.6685 17.1061C20.6392 17.1061 20.616 17.0949 20.6013 17.0807C20.5945 17.0741 20.5923 17.0695 20.5919 17.0686C20.5917 17.0682 20.5916 17.068 20.5916 17.0677C20.5915 17.0674 20.5911 17.0656 20.5911 17.0614H17.5911C17.5911 18.8038 19.0309 20.1061 20.6685 20.1061V17.1061ZM20.5911 17.0614C20.5911 17.0574 20.5915 17.0555 20.5916 17.0552C20.5916 17.0549 20.5917 17.0547 20.5918 17.0544L17.8299 15.8833C17.6756 16.247 17.5911 16.6458 17.5911 17.0614H20.5911ZM19.0002 18C19.2231 18 19.4411 17.9667 19.6478 17.9038L18.7739 15.0339C18.8475 15.0114 18.924 15 19.0002 15V18ZM13.3001 18H19.0002V15H13.3001V18ZM11.0876 15.7979C11.0876 17.0348 12.099 18 13.3001 18V15C13.7142 15 14.0876 15.3365 14.0876 15.7979H11.0876ZM13.3001 13.5957C12.099 13.5957 11.0876 14.561 11.0876 15.7979H14.0876C14.0876 16.2592 13.7142 16.5957 13.3001 16.5957V13.5957ZM19.0002 13.5957H13.3001V16.5957H19.0002V13.5957ZM19.5499 13.6646C19.3725 13.6194 19.188 13.5957 19.0002 13.5957V16.5957C18.9361 16.5957 18.8716 16.5876 18.8086 16.5716L19.5499 13.6646ZM20.6792 15.1181V15.0752H17.6792V15.1181H20.6792ZM20.1239 13.91C19.7364 13.5959 19.4471 13.1819 19.2952 12.7176L16.4439 13.6502C16.782 14.6839 17.4158 15.5765 18.2346 16.2404L20.1239 13.91ZM16.9813 11.9752C16.9663 11.9862 16.9467 11.9936 16.9223 11.9936V14.9936C17.6027 14.9936 18.2416 14.772 18.7578 14.3926L16.9813 11.9752ZM16.9223 11.9936H15.8275V14.9936H16.9223V11.9936ZM15.8275 11.9936C15.7982 11.9936 15.775 11.9825 15.7602 11.9682C15.7535 11.9617 15.7512 11.957 15.7509 11.9561C15.7507 11.9557 15.7506 11.9555 15.7505 11.9552C15.7505 11.955 15.7501 11.9531 15.7501 11.949H12.7501C12.7501 13.6914 14.1899 14.9936 15.8275 14.9936V11.9936ZM15.7501 11.949C15.7501 11.9459 15.7503 11.9441 15.7504 11.9434C15.7505 11.9427 15.7506 11.9424 15.7506 11.9424C15.7507 11.9423 15.7507 11.942 15.751 11.9415C15.7512 11.941 15.7517 11.9401 15.7526 11.9388L13.2428 10.2952C12.9321 10.7697 12.7501 11.3385 12.7501 11.949H15.7501ZM14.0876 19.5426C14.0876 20.0039 13.7142 20.3404 13.3001 20.3404V17.3404C12.099 17.3404 11.0876 18.3057 11.0876 19.5426H14.0876ZM13.3001 18.7447C13.7142 18.7447 14.0876 19.0812 14.0876 19.5426H11.0876C11.0876 20.7794 12.099 21.7447 13.3001 21.7447V18.7447ZM19.0002 18.7447H13.3001V21.7447H19.0002V18.7447ZM18.2127 19.5426C18.2127 19.0812 18.5861 18.7447 19.0002 18.7447V21.7447C20.2013 21.7447 21.2127 20.7794 21.2127 19.5426H18.2127ZM19.0002 20.3404C18.5861 20.3404 18.2127 20.0039 18.2127 19.5426H21.2127C21.2127 18.3057 20.2013 17.3404 19.0002 17.3404V20.3404ZM13.3001 20.3404H19.0002V17.3404H13.3001V20.3404ZM13.3001 21.0851C12.099 21.0851 11.0876 22.0503 11.0876 23.2872H14.0876C14.0876 23.7486 13.7142 24.0851 13.3001 24.0851V21.0851ZM19.0002 21.0851H13.3001V24.0851H19.0002V21.0851ZM21.2127 23.2872C21.2127 22.0503 20.2013 21.0851 19.0002 21.0851V24.0851C18.5861 24.0851 18.2127 23.7486 18.2127 23.2872H21.2127ZM19.0002 25.4894C20.2013 25.4894 21.2127 24.5241 21.2127 23.2872H18.2127C18.2127 22.8259 18.5861 22.4894 19.0002 22.4894V25.4894ZM13.3001 25.4894H19.0002V22.4894H13.3001V25.4894ZM11.0876 23.2872C11.0876 24.5241 12.099 25.4894 13.3001 25.4894V22.4894C13.7142 22.4894 14.0876 22.8259 14.0876 23.2872H11.0876Z" fill="white" mask="url(#path-2-inside-1_549_197)"/>
</svg>
